<svg width="176" height="176" viewBox="0 0 176 176" fill="none" xmlns="http://www.w3.org/2000/svg">
<path d="M33 161.333C30.0667 161.333 27.5 160.233 25.3 158.033C23.1 155.833 22 153.267 22 150.333V36.6666C22 33.7333 23.1 31.1666 25.3 28.9666C27.5 26.7666 30.0667 25.6666 33 25.6666H44.9167V14.6666H56.8333V25.6666H119.167V14.6666H131.083V25.6666H143C145.933 25.6666 148.5 26.7666 150.7 28.9666C152.9 31.1666 154 33.7333 154 36.6666V150.333C154 153.267 152.9 155.833 150.7 158.033C148.5 160.233 145.933 161.333 143 161.333H33ZM33 150.333H143V71.5H33V150.333ZM33 60.5H143V36.6666H33V60.5ZM33 60.5V36.6666V60.5ZM88 102.667C85.9222 102.667 84.1806 101.964 82.775 100.558C81.3694 99.1527 80.6667 97.4111 80.6667 95.3333C80.6667 93.2555 81.3694 91.5139 82.775 90.1083C84.1806 88.7027 85.9222 88 88 88C90.0778 88 91.8194 88.7027 93.225 90.1083C94.6306 91.5139 95.3333 93.2555 95.3333 95.3333C95.3333 97.4111 94.6306 99.1527 93.225 100.558C91.8194 101.964 90.0778 102.667 88 102.667ZM58.6667 102.667C56.5889 102.667 54.8472 101.964 53.4417 100.558C52.0361 99.1527 51.3333 97.4111 51.3333 95.3333C51.3333 93.2555 52.0361 91.5139 53.4417 90.1083C54.8472 88.7027 56.5889 88 58.6667 88C60.7444 88 62.4861 88.7027 63.8917 90.1083C65.2972 91.5139 66 93.2555 66 95.3333C66 97.4111 65.2972 99.1527 63.8917 100.558C62.4861 101.964 60.7444 102.667 58.6667 102.667ZM117.333 102.667C115.256 102.667 113.514 101.964 112.108 100.558C110.703 99.1527 110 97.4111 110 95.3333C110 93.2555 110.703 91.5139 112.108 90.1083C113.514 88.7027 115.256 88 117.333 88C119.411 88 121.153 88.7027 122.558 90.1083C123.964 91.5139 124.667 93.2555 124.667 95.3333C124.667 97.4111 123.964 99.1527 122.558 100.558C121.153 101.964 119.411 102.667 117.333 102.667ZM88 132C85.9222 132 84.1806 131.297 82.775 129.892C81.3694 128.486 80.6667 126.744 80.6667 124.667C80.6667 122.589 81.3694 120.847 82.775 119.442C84.1806 118.036 85.9222 117.333 88 117.333C90.0778 117.333 91.8194 118.036 93.225 119.442C94.6306 120.847 95.3333 122.589 95.3333 124.667C95.3333 126.744 94.6306 128.486 93.225 129.892C91.8194 131.297 90.0778 132 88 132ZM58.6667 132C56.5889 132 54.8472 131.297 53.4417 129.892C52.0361 128.486 51.3333 126.744 51.3333 124.667C51.3333 122.589 52.0361 120.847 53.4417 119.442C54.8472 118.036 56.5889 117.333 58.6667 117.333C60.7444 117.333 62.4861 118.036 63.8917 119.442C65.2972 120.847 66 122.589 66 124.667C66 126.744 65.2972 128.486 63.8917 129.892C62.4861 131.297 60.7444 132 58.6667 132ZM117.333 132C115.256 132 113.514 131.297 112.108 129.892C110.703 128.486 110 126.744 110 124.667C110 122.589 110.703 120.847 112.108 119.442C113.514 118.036 115.256 117.333 117.333 117.333C119.411 117.333 121.153 118.036 122.558 119.442C123.964 120.847 124.667 122.589 124.667 124.667C124.667 126.744 123.964 128.486 122.558 129.892C121.153 131.297 119.411 132 117.333 132Z" fill="white"/>
</svg>
