<svg width="198" height="198" viewBox="0 0 198 198" fill="none" xmlns="http://www.w3.org/2000/svg">
<path d="M98.997 0C61.1103 0 30.2877 30.8271 30.2877 68.7148C30.2877 105.185 92.6289 190.392 95.2833 194.001L97.7606 197.372C98.0504 197.768 98.5117 198 98.997 198C99.4899 198 99.9482 197.768 100.241 197.372L102.717 194.001C105.373 190.392 167.712 105.185 167.712 68.7148C167.712 30.8271 136.885 0 98.997 0ZM98.997 44.1013C112.572 44.1013 123.611 55.1404 123.611 68.7148C123.611 82.2823 112.571 93.3284 98.997 93.3284C85.4301 93.3284 74.3835 82.2823 74.3835 68.7148C74.3835 55.1404 85.4296 44.1013 98.997 44.1013Z" fill="white"/>
</svg>
