<svg width="126" height="126" viewBox="0 0 126 126" fill="none" xmlns="http://www.w3.org/2000/svg">
<path d="M48.625 125.5L45.5 105.813C43.5208 105.083 41.4375 104.094 39.25 102.844C37.0625 101.594 35.1354 100.292 33.4688 98.9375L15.0312 107.375L0.5 81.75L17.375 69.4062C17.1667 68.4687 17.0365 67.401 16.9844 66.2031C16.9323 65.0052 16.9062 63.9375 16.9062 63C16.9062 62.0625 16.9323 60.9948 16.9844 59.7969C17.0365 58.599 17.1667 57.5313 17.375 56.5938L0.5 44.25L15.0312 18.625L33.4688 27.0625C35.1354 25.7083 37.0625 24.4063 39.25 23.1562C41.4375 21.9062 43.5208 20.9688 45.5 20.3438L48.625 0.5H77.375L80.5 20.1875C82.4792 20.9167 84.5885 21.8802 86.8281 23.0781C89.0677 24.276 90.9688 25.6042 92.5313 27.0625L110.969 18.625L125.5 44.25L108.625 56.2813C108.833 57.3229 108.964 58.4427 109.016 59.6406C109.068 60.8385 109.094 61.9583 109.094 63C109.094 64.0417 109.068 65.1354 109.016 66.2812C108.964 67.4271 108.833 68.5208 108.625 69.5625L125.5 81.75L110.969 107.375L92.5313 98.9375C90.8646 100.292 88.9635 101.62 86.8281 102.922C84.6927 104.224 82.5833 105.188 80.5 105.813L77.375 125.5H48.625ZM63 83.3125C68.625 83.3125 73.4167 81.3333 77.375 77.375C81.3333 73.4167 83.3125 68.625 83.3125 63C83.3125 57.375 81.3333 52.5833 77.375 48.625C73.4167 44.6667 68.625 42.6875 63 42.6875C57.375 42.6875 52.5833 44.6667 48.625 48.625C44.6667 52.5833 42.6875 57.375 42.6875 63C42.6875 68.625 44.6667 73.4167 48.625 77.375C52.5833 81.3333 57.375 83.3125 63 83.3125Z" fill="white"/>
</svg>
